<svg t="1725799322006" class="icon" viewBox="0 0 1024 1024" version="1.1" xmlns="http://www.w3.org/2000/svg" p-id="9579"
  width="200" height="200">
  <path
    d="M5.069307 791.217426c0 61.845545 226.040396 111.960713 504.882693 111.960713 278.832158 0 504.872554-50.115168 504.872554-111.960713 0-61.825267-226.040396-111.950574-504.872554-111.950575C231.109703 679.266851 5.069307 729.392158 5.069307 791.217426z"
    fill="#E5F2FF" p-id="9580"></path>
  <path d="M124.177743 437.308832l396.379247-63.670495 0.36499 435.088475-323.827327-55.701545-72.91691-315.716435z"
    fill="#AAC7E8" p-id="9581"></path>
  <path
    d="M123.792475 436.893149L437.339248 542.618614l-1.622179 330.346455L186.996594 757.658614l-63.183842-320.765465z"
    fill="#D3E4FC" p-id="9582"></path>
  <path
    d="M338.254574 546.491564l-121.572119-40.230019a10.919287 10.919287 0 0 0-14.295445 12.237306l8.48602 42.217189 137.479604 45.461544 0.233188-45.552792a14.832792 14.832792 0 0 0-10.331248-14.143366v0.010138z"
    fill="#92B3D4" p-id="9583"></path>
  <path
    d="M338.396515 543.733861l-119.280792-40.230019a10.787485 10.787485 0 0 0-13.991287 12.267722l8.313663 42.186773 134.843564 45.461544 0.243327-45.562931a14.832792 14.832792 0 0 0-10.138614-14.123089z"
    fill="#AAC7E8" p-id="9584"></path>
  <path d="M520.55699 373.070574l293.137743 82.822337-54.920872 332.72903-238.216871 61.926653V373.070574z"
    fill="#D3E4FC" p-id="9585"></path>
  <path
    d="M674.856554 458.31604l-121.582257-40.23002a10.888871 10.888871 0 0 0-14.214337 12.247445l8.445466 42.217188 137.236277 45.451406 0.212911-45.552792a14.802376 14.802376 0 0 0-10.09806-14.133227z"
    fill="#92B3D4" p-id="9586"></path>
  <path
    d="M675.262099 455.558337l-119.321347-40.23002a10.787485 10.787485 0 0 0-13.910178 12.369109l8.303525 42.186772 134.782733 45.502099 0.243326-45.562931a14.842931 14.842931 0 0 0-10.098059-14.265029z"
    fill="#FFFFFF" p-id="9587"></path>
  <path d="M437.54202 542.557782l-2.189941 330.417426 337.737505-86.685149 40.59501-330.417425-376.142574 86.685148z"
    fill="#AAC7E8" p-id="9588"></path>
  <path d="M518.21497 373.53695l291.931248 83.136634 2.737426-0.608317-293.208713-82.761505-1.459961 0.233188z"
    fill="#92B5DC" p-id="9589"></path>
  <path d="M123.792475 436.893149l396.896317-63.802298-0.141941 0.983446-395.456633 63.264951-1.287604-0.446099z"
    fill="#92B5DC" p-id="9590"></path>
  <path d="M123.792475 436.893149l313.607604 105.887683 1.622178-0.405545-313.830653-105.684911-1.38899 0.202773z"
    fill="#92B5DC" p-id="9591"></path>
  <path d="M437.075644 542.821386l375.797861-86.766257-0.060832 0.983445-375.838416 86.867644 0.101387-1.074693z"
    fill="#92B5DC" p-id="9592"></path>
  <path
    d="M587.451564 518.43802s37.715644 304.300356 38.060357 312.066534c0.344713 7.745901 70.047683 43.839366 70.047683 43.839367L587.431287 518.43802h0.010139z"
    fill="#1E68B3" opacity=".2" p-id="9593"></path>
  <path d="M583.60903 504.60895l111.940435 369.603169 101.457109-7.553268-115.874218-372.026297-97.533465 9.976396z"
    fill="#AAC7E8" p-id="9594"></path>
  <path
    d="M681.132356 494.632554l174.353743-111.423366 80.693228 354.020119L796.996436 866.648713 681.132356 494.632554z"
    fill="#D3E4FC" p-id="9595"></path>
  <path d="M766.104079 387.964198l-182.495049 116.644752 97.462495-9.875009 174.384158-111.423367-89.351604 4.653624z"
    fill="#DEEBFA" p-id="9596"></path>
  <path
    d="M748.706218 204.414733c0 33.72103-35.961663 62.484277-87.800396 75.765861-5.474851 1.419406-38.901861 33.994772-38.901862 33.994772s7.796594-28.053545 0.36499-27.374257c-8.536713 0.811089-17.11398 1.216634-25.691247 1.216634-83.998416 0-151.977822-37.441901-151.977822-83.60301 0-46.171248 67.94899-83.60301 151.937268-83.60301s152.079208 37.431762 152.079207 83.60301h-0.010138z"
    fill="#E5F2FF" p-id="9597"></path>
  <path
    d="M640.314297 204.424871a18.13798 18.13798 0 0 0 18.158257 18.13798 18.148119 18.148119 0 1 0-16.779405-25.093069c-0.912475 2.210218-1.378851 4.562376-1.378852 6.955089z m-61.845545 0a18.148119 18.148119 0 0 0 34.947802 6.944951 18.13798 18.13798 0 0 0-23.724356-23.724357 18.158257 18.158257 0 0 0-11.223446 16.779406z m-61.835405 0a18.148119 18.148119 0 0 0 31.024158 12.825347 18.13798 18.13798 0 0 0-19.800713-29.604753 18.158257 18.158257 0 0 0-11.213307 16.779406h-0.010138z"
    fill="#FFFFFF" p-id="9598"></path>
</svg>