<svg t="1725865867835" class="icon" viewBox="0 0 1024 1024" version="1.1" xmlns="http://www.w3.org/2000/svg"
  p-id="15011" width="200" height="200">
  <path
    d="M918.6304 462.5152A293.0432 293.0432 0 0 1 755.2 512C592.6144 512 460.8 380.1856 460.8 217.6c0-40.5248 8.192-79.104 22.9888-114.2528C270.7456 117.8624 102.4 295.2704 102.4 512c0 226.2272 183.3728 409.6 409.6 409.6s409.6-183.3728 409.6-409.6c0-16.7424-1.024-33.28-2.9696-49.4848z"
    fill="#FF9A27" p-id="15012"></path>
  <path
    d="M742.4 153.6l20.0192 44.2112a128 128 0 0 0 63.7696 63.744L870.4 281.6l-44.2112 20.0448a128 128 0 0 0-63.744 63.744L742.4 409.6l-20.0192-44.2112a128 128 0 0 0-63.7696-63.744L614.4 281.6l44.2112-20.0448a128 128 0 0 0 63.744-63.744L742.4 153.6z"
    fill="#FFD754" p-id="15013"></path>
</svg>